<?xml version="1.0" standalone="no"?>
<!DOCTYPE svg PUBLIC "-//W3C//DTD SVG 20010904//EN"
 "http://www.w3.org/TR/2001/REC-SVG-20010904/DTD/svg10.dtd">
<svg version="1.0" xmlns="http://www.w3.org/2000/svg"
 width="300.000000pt" height="300.000000pt" viewBox="0 0 300.000000 300.000000"
 preserveAspectRatio="xMidYMid meet">
<metadata>
Created by potrace 1.10, written by Peter Selinger 2001-2011
</metadata>
<g transform="translate(0.000000,300.000000) scale(0.100000,-0.100000)"
fill="#000000" stroke="none">
<path d="M2105 1741 c-46 -21 -79 -54 -94 -94 -16 -42 -14 -276 2 -283 14 -5
222 48 255 65 12 6 34 28 49 48 24 31 28 46 28 103 0 58 -4 71 -29 104 -32 42
-95 76 -141 76 -16 0 -48 -9 -70 -19z m131 -85 c59 -50 20 -146 -59 -146 -36
1 -58 14 -75 47 -19 35 -14 63 17 94 37 36 79 38 117 5z m-186 -60 c-6 -18 -3
-31 13 -54 25 -35 84 -72 116 -72 24 0 81 26 81 38 0 4 12 15 25 25 20 14 24
15 19 2 -3 -8 -10 -15 -16 -15 -5 0 -6 -5 -3 -10 3 -6 -1 -13 -9 -16 -9 -3
-14 -10 -11 -14 6 -10 -61 -37 -139 -55 -96 -23 -92 -27 -91 68 2 113 4 127
15 127 6 0 6 -9 0 -24z"/>
<path d="M775 1708 c-42 -24 -44 -35 -45 -244 0 -142 3 -203 12 -212 16 -16
63 -15 76 1 7 8 13 70 14 152 l3 138 65 -129 c62 -122 67 -129 95 -129 28 0
33 7 95 129 l65 129 3 -138 c1 -82 7 -144 14 -152 13 -16 60 -17 76 -1 9 9 12
70 12 213 0 188 -1 203 -20 223 -27 29 -64 37 -100 22 -28 -12 -68 -80 -127
-219 -8 -18 -18 -30 -22 -25 -4 5 -30 58 -57 118 -58 129 -97 159 -159 124z
m68 -40 c9 -7 37 -57 62 -110 51 -108 77 -136 108 -115 24 16 69 95 62 108 -4
5 -2 9 3 9 5 0 19 22 32 49 31 67 89 90 105 42 3 -9 6 -90 7 -181 1 -118 -2
-165 -10 -168 -14 -4 -14 -6 -16 113 -2 96 -15 135 -45 135 -25 0 -38 -18 -92
-124 -26 -50 -54 -92 -62 -94 -11 -2 -29 22 -58 80 -53 107 -76 138 -99 138
-28 0 -42 -34 -46 -114 -5 -94 -13 -136 -24 -136 -6 0 -10 7 -10 15 0 8 5 15
11 15 5 0 7 5 3 11 -3 6 -6 47 -5 91 1 62 -1 78 -11 72 -10 -6 -11 -4 0 7 7 7
12 39 12 73 0 81 30 116 73 84z"/>
<path d="M1519 1708 c-9 -7 -55 -104 -103 -216 -84 -196 -87 -204 -72 -228 31
-46 78 -27 106 44 l12 32 103 0 103 0 23 -47 c17 -34 31 -49 47 -51 24 -4 62
22 62 42 0 24 -172 412 -187 424 -9 6 -31 12 -48 12 -17 0 -38 -6 -46 -12z
m81 -48 c39 -72 149 -347 145 -359 -4 -11 -12 -5 -27 19 -28 47 -47 59 -90 60
-21 0 -38 5 -38 10 0 6 5 10 12 10 35 0 66 78 38 95 -5 3 -10 15 -10 25 0 11
-13 34 -28 51 -24 27 -32 30 -48 21 -25 -13 -74 -102 -74 -134 0 -26 41 -73
53 -61 4 3 7 1 7 -5 0 -6 -19 -12 -42 -14 -36 -3 -47 -9 -74 -46 -18 -23 -36
-38 -39 -32 -7 11 119 310 148 353 22 32 52 35 67 7z m30 -224 c0 0 -27 -1
-60 -1 -33 0 -60 2 -60 4 0 3 12 35 28 73 l27 67 33 -71 c17 -39 32 -71 32
-72z"/>
<path d="M1887 1702 c-15 -16 -17 -47 -17 -225 0 -223 3 -237 55 -237 47 0 51
22 49 247 -2 185 -4 209 -20 220 -25 18 -48 16 -67 -5z m47 -58 c8 -20 7 -300
-1 -331 -14 -60 -23 5 -23 168 0 162 7 208 24 163z"/>
</g>
</svg>
